<svg xmlns="http://www.w3.org/2000/svg" width="16" height="16" viewBox="0 0 16 16"><path d="M14.29 12.81a1.69 1.69 0 01-.36-.75c-.08-.38-.18-.75-.59-.9a.26.26 0 000-.07 3.34 3.34 0 00.05-1.8A6.18 6.18 0 0012.3 7c-.32-.43-.66-.84-1-1.27a2.75 2.75 0 01-.6-1.87 7.48 7.48 0 000-.82 5 5 0 00-.27-1.67A1.92 1.92 0 008.88.05a3.34 3.34 0 00-1.57.1 1.82 1.82 0 00-1.25 1.22 3.72 3.72 0 00-.18.94v1.64a3.5 3.5 0 01-.76 2.37 11 11 0 00-1.53 2.44 4.18 4.18 0 00-.41 1.87.75.75 0 01-.16.52 1.54 1.54 0 01-1 .71h-.1a.84.84 0 00-.48.87 2 2 0 000 .26 1.53 1.53 0 01-.05.9.5.5 0 000 .13.74.74 0 00.65 1l.57.08a4 4 0 011.48.39 2.43 2.43 0 001.35.28 1.2 1.2 0 001-.6.21.21 0 01.11-.07l.46-.07A5.07 5.07 0 018.4 15l1.3.12a.21.21 0 01.09.11 1.28 1.28 0 001.43.8 2.22 2.22 0 001.32-.79 2.86 2.86 0 01.87-.67l.7-.36a.77.77 0 00.47-.55 1 1 0 00-.29-.85zm-6-10.32a.57.57 0 01.83 0 1 1 0 01.09 1.27h-.09c-.02 0-.79-.36-1.05-.46l-.05-.06a1 1 0 01.29-.75zM8 3.85l1 .37a.36.36 0 01.24.26 3.67 3.67 0 01-1.6.52 5.47 5.47 0 01-1.16-.31.23.23 0 01.08-.33L7.12 4A1 1 0 018 3.85zM6.42 2.73a.39.39 0 01.72 0 1 1 0 01.16.6c0 .11 0 .1-.23.2a1.79 1.79 0 00-.51.37 2.39 2.39 0 01-.13-.21 1 1 0 01-.01-.96zM5.2 15.09H5a1.78 1.78 0 01-.85-.21A3.15 3.15 0 003 14.57a4.34 4.34 0 01-.52-.09.35.35 0 01-.3-.47 1.55 1.55 0 010-.21 1.18 1.18 0 000-.72 1.33 1.33 0 010-.28.48.48 0 01.29-.46l.27-.1a.83.83 0 00.44-.32l.24-.31a.46.46 0 01.64-.09 1.75 1.75 0 01.36.36 1.3 1.3 0 01.14.26 7.27 7.27 0 00.92 1.41 2.35 2.35 0 01.3.45.72.72 0 01-.58 1.09zm4.8-1.47a.2.2 0 01-.07.09 3.35 3.35 0 01-2.39.63 2.58 2.58 0 01-1.07-.4 1.24 1.24 0 01-.18-.21l-.33-.44h.21a.38.38 0 00.31-.5 1.93 1.93 0 00-.27-.56 3.68 3.68 0 00-1-.89 1.53 1.53 0 01-.3-.19.78.78 0 01-.12-.58v-.44a6 6 0 01.56-1.93 14.65 14.65 0 00.85-2.1c.08-.32.14-.64.22-1 .16.13.34.25.5.39a1 1 0 00.64.28 2 2 0 00.72-.13 4 4 0 00.47-.21L9 5.31a3.2 3.2 0 00.55-.42 16.08 16.08 0 001 2.6c.19.41.41.82.58 1.25a2.76 2.76 0 01.3 1c0 .47-.31.47-.39.85a.23.23 0 01-.08.11 1.06 1.06 0 00-.56.68 6.27 6.27 0 00-.18 1.28c-.1.34-.22.64-.22.96zm3.78.1a2.56 2.56 0 01-.4.22l-.38.2a2.12 2.12 0 00-.64.51 1.74 1.74 0 01-1 .6.84.84 0 01-1-.48 1 1 0 010-.65 4.37 4.37 0 01.12-.49 4.37 4.37 0 00.21-1.18 4.58 4.58 0 01.13-.74.54.54 0 01.3-.36c0 .13.07.27.12.39a.54.54 0 00.71.31 1.42 1.42 0 00.56-.32.3.3 0 01.15-.07h.16a.49.49 0 01.45.33 3.9 3.9 0 01.12.46 1 1 0 00.24.45 3.62 3.62 0 01.22.32.33.33 0 01-.11.5z"/></svg>